<?xml version="1.0" encoding="UTF-8"?><svg id="Laag_1" xmlns="http://www.w3.org/2000/svg" viewBox="0 0 250 250"><defs><style>.cls-1{fill:#fff;}</style></defs><path class="cls-1" d="M226.62,175.56c8.05-11.07,12.94-23.46,15.11-36.99,7.09-44.19-20.7-86.26-63.24-97.8-8.62-2.34-17.46-3.62-26.38-3.14-22.09,1.19-41.42,9.15-57.44,24.57-1.84,1.77-3.5,2.45-6.16,2.17-37.34-3.95-70.78,18.94-80.4,55.01-1.12,4.2-1.45,8.61-2.16,12.92-.09,.53-.27,1.05-.41,1.57v8.9c.5,3.09,.89,6.2,1.52,9.26,4.73,22.92,17.32,40.12,37.83,51.42,9.14,5.04,18.96,7.9,29.4,8.61,.46,.03,.92,.26,1.37,.4h84.96c2.42-.37,4.84-.75,7.27-1.12,24.6-3.71,44.16-15.73,58.74-35.79Zm-124.35,20.46c-8.1-.02-16.21,.25-24.29-.16-20.79-1.04-36.79-10.58-47.49-28.38-16.61-27.61-6.96-63.9,21.32-79.35,21.8-11.91,46.97-10.64,66.75,7.72,8.74,8.11,16.98,16.75,25.35,25.24,3.21,3.26,3.05,8.11-.09,11.12-3.21,3.08-8.11,3.1-11.33-.1-7.75-7.72-15.48-15.46-23.16-23.24-6.98-7.08-15.52-10.89-25.28-11.92-18.15-1.92-35.7,8.73-42.67,25.68-10.01,24.33,6.05,52.64,32.04,56.31,3.77,.53,7.65,.25,11.46,.53,1.21,.09,2.66,.47,3.52,1.24,5.21,4.74,10.28,9.64,15.39,14.49,.12,.12,.17,.3,.36,.65-.7,.07-1.29,.19-1.88,.18Zm15.57-10.24c-3.27-2.06-6.31-4.59-9.08-7.29-12.09-11.77-24.06-23.66-36.05-35.53-3.56-3.52-4.02-7.32-1.45-10.96,2.72-3.85,8.08-4.65,11.77-1.71,.82,.65,1.56,1.41,2.3,2.15,10.61,10.63,21.23,21.26,31.82,31.9,8.25,8.29,18.16,13.29,29.72,15.01,32.77,4.89,55.68-17.94,61.44-40.76,8.29-32.86-14.31-59.93-38.36-66.02-15.04-3.81-29.28-2.21-42.63,5.82-1.84,1.11-3.06,.95-4.78-.21-3.42-2.32-7.05-4.32-10.59-6.45-.56-.34-1.14-.65-2.19-1.24,3.47-2.36,6.5-4.7,9.79-6.6,43.36-25.03,96.64,.54,105.58,48.39,7.11,38.01-17.83,74.8-56.05,82.47-18.15,3.64-35.42,1-51.24-8.98Z"/></svg>