<?xml version="1.0" encoding="UTF-8"?><svg id="Laag_1" xmlns="http://www.w3.org/2000/svg" viewBox="0 0 250 250"><defs><style>.cls-1{fill:#fff;}</style></defs><path class="cls-1" d="M223.42,133.44c-10.91-6.72-22.36-6.32-34.03-2.32-1.12,.39-2.21,.88-3.33,1.32-3.8-5.75-5.66-11.79-4.41-18.49,.43-2.29,1.41-4.47,1.82-6.76,.15-.83-.39-2.38-1.04-2.67-3.37-1.49-6.98-1-10.11,.41-1.39,.62-2.25,3.14-2.71,4.96-2.43,9.57-8.26,17.38-13.1,25.89-1.08-2.25-2.03-4.47-2.59-6.78-1.24-5.12-.38-10.08,1.48-14.94,.9-2.36,.22-3.74-2.24-3.88-2.7-.15-5.48,.1-8.14,.61-.97,.19-2.01,1.48-2.48,2.52-.76,1.66-.87,3.62-1.61,5.3-5.41,12.25-10.9,24.46-16.4,36.66-.7,1.55-1.6,3-2.41,4.49-.23-.07-.47-.14-.7-.22,.1-1.65-.03-3.35,.34-4.93,1.52-6.51,3.21-12.98,4.82-19.47,.96-3.86-1.06-5.97-4.96-5.22-.44,.08-.87,.22-1.53,.39,.12-1.15,.25-2.09,.31-3.03,.53-8.11-4.74-11.73-12.16-8.35-.29,.13-.58,.28-.87,.43-4.53,2.32-8.25,5.63-11.46,9.55-.5,.61-1.05,1.26-1.72,1.63-6.06,3.38-12.14,6.74-18.27,9.99-.59,.31-1.83,.09-2.39-.35-1.96-1.54-3.71-3.36-5.64-4.96-5.67-4.68-11.57-9.08-17.03-13.98-9.15-8.2-11.33-17.78-5.91-27.81,2.41-4.46,5.71-8.74,9.5-12.09,16.35-14.41,35.19-24.22,56.68-28.41,8.37-1.63,16.86-1.75,25.15,1.11,7.08,2.45,10.05,7.09,9.05,14.5-.82,6.09-4,11.03-7.98,15.47-8.83,9.87-20.07,15.64-32.89,18.2-10.07,2.01-20.16,2.97-28.35-5.45-.29-.3-1.24-.42-1.46-.2-.38,.38-.73,1.19-.57,1.64,.48,1.35,1.01,2.77,1.88,3.88,3.55,4.53,8.35,7.18,13.97,7.95,14.44,1.98,28.3-.47,41.03-7.38,13.26-7.19,22.77-17.82,25.59-33.14,1.75-9.46-.75-17.75-9.2-23.24-3.2-2.08-6.86-3.56-10.49-4.83-3.07-1.08-6.38-1.47-9.59-2.16h-14.07c-2.54,.41-5.1,.71-7.6,1.26-20.01,4.44-38.08,13.13-54.47,25.29-8.83,6.55-16.46,14.31-21.45,24.29-2.64,5.29-4.35,10.81-2.78,16.8,1.56,5.95,5.09,10.73,9.29,15.09,6.55,6.8,14.39,11.96,22.08,17.31,2.82,1.96,5.57,4.04,8.59,6.24-1.41,.76-2.39,1.3-3.39,1.83-7.31,3.84-14.33,8.11-20.58,13.56-6.55,5.7-10.65,12.5-9.73,21.57,.55,5.43,3.86,10.16,7.97,11.13,5.29,1.25,10.62,1.23,15.8-.41,14.61-4.61,24.28-17.68,24.14-32.98-.04-4.5-1.11-9-1.76-13.83,2.99-1.71,6.44-3.68,10.16-5.79-.64,3.2-1.24,5.94-1.72,8.7-1.44,8.19-.15,15.84,4.26,22.99,2.55,4.14,9.36,4.29,12.08,.55,.85-1.17,1.67-2.38,2.33-3.67,1.73-3.37,3.37-6.79,5.09-10.3,.3,3.12,.35,6.04,.89,8.86,.99,5.15,5.55,6.62,9.36,3.06,1.52-1.42,2.98-3.04,3.96-4.85,3.92-7.23,7.76-14.51,11.39-21.89,2.45-4.97,4.5-10.13,6.65-15.04,1.59,4.3,2.87,8.79,4.91,12.9,1.41,2.84,1.33,4.89-.88,6.99-.12,.11-.22,.24-.32,.36-3.54,4.3-7.11,8.58-10.61,12.92-1.27,1.58-2.63,3.33-1.52,5.48,1.14,2.23,3.39,2.21,5.53,2.12,6.19-.25,11.71-2.36,16.36-6.42,4.09-3.56,5.55-8.24,4.71-13.55-.42-2.64-2.02-5.39-1.55-7.78,.51-2.58,2.89-4.76,4.33-7.19,2.4-4.06,4.71-8.18,6.89-11.99,1.83,4.67,3.73,9.4,5.5,14.18,.17,.45-.23,1.31-.62,1.74-1.68,1.85-3.58,3.51-5.16,5.44-3.01,3.66-5.45,7.66-5.76,12.55-.31,4.88,2.61,7.32,7.32,6.01,4.89-1.36,9.3-3.71,12.87-7.4,2.72-2.82,4.66-6.07,4.21-10.17-.27-2.44-.86-4.85-1.31-7.35,7.1-2.91,14.47-2.96,21.9-1.82,5.36,.82,10.28,2.75,14.2,6.7,5.53,5.58,5.78,12.6,.6,17.3-.77,.7-1.77,1.16-2.51,1.88-.43,.42-.57,1.15-.84,1.74,.65,.11,1.31,.31,1.96,.29,.45-.01,.9-.32,1.34-.51,4.2-1.82,6.58-5.23,8.21-9.31v-6.79c-1.72-5.84-4.86-10.69-10.11-13.92Zm-154.05,36.66c-3.69,6.28-8.95,10.73-16.26,12.4-4.61,1.06-7.22-1.06-7.02-5.76,.18-4.22,2.04-7.8,4.74-10.88,5.82-6.65,13.31-11.11,20.95-15.7,2.27,7.21,1.19,13.8-2.41,19.94Zm45.02-41.54c-1.07,4.04-2.06,8.12-3.47,12.04-2.15,5.98-4.6,11.84-6.99,17.73-.45,1.11-1.1,2.17-1.83,3.12-.44,.57-1.22,1.16-1.87,1.19-.39,.02-1.09-.94-1.23-1.56-.53-2.33-.89-4.71-1.31-7.06,.47-8.84,3.54-16.6,8.86-23.46,1.28-1.66,3.25-2.83,5.04-4.02,.61-.41,1.79-.48,2.43-.16,.4,.2,.56,1.49,.38,2.17Zm29.06,34.45l9.47-11.07c-.16,4.51-4.48,9.64-9.47,11.07Zm29.15-6.9c.92-5.71,3.74-9.92,7.57-13.67,2.86,4.77-1.04,12.04-7.57,13.67Z"/></svg>