<?xml version="1.0" encoding="UTF-8"?><svg id="Laag_1" xmlns="http://www.w3.org/2000/svg" viewBox="0 0 250 250"><defs><style>.cls-1{fill:#fff;}</style></defs><path class="cls-1" d="M14.68-.27c.04,.81,.05,1.51,.11,2.21,.17,1.97,.36,3.94,.53,5.91,.33,3.74,.65,7.48,.99,11.22,.48,5.41,.97,10.81,1.45,16.22,.33,3.74,.66,7.48,.99,11.22,.47,5.25,.95,10.51,1.42,15.76,.35,3.89,.68,7.78,1.03,11.67,.46,5.15,.94,10.31,1.39,15.46,.35,3.94,.68,7.89,1.03,11.83,.46,5.1,.94,10.2,1.39,15.31,.45,5.1,.87,10.21,1.33,15.31,.56,6.21,1.15,12.43,1.7,18.64,.46,5.15,.88,10.31,1.34,15.47,.56,6.22,1.15,12.43,1.7,18.64,.56,6.32,1.09,12.64,1.64,18.95,.58,6.62,1.19,13.24,1.78,19.86,.14,1.62,.12,1.63,1.66,2.05,12.93,3.58,25.87,7.15,38.8,10.73,16.05,4.45,32.11,8.9,48.16,13.36,.51,.14,.97,.47,1.45,.7h.3c.49-.23,.97-.55,1.48-.69,28.54-7.92,57.09-15.83,85.63-23.75,1.07-.3,2.12-.62,3.25-.94,6.69-75.09,13.39-150.1,20.07-225.15H14.68ZM193.05,59.49c-.39,4.59-.85,9.17-1.29,13.86H86c.81,9.45,1.65,18.74,2.54,28.17h100.7c-.75,9.59-1.68,19-2.49,28.43-.8,9.4-1.69,18.79-2.54,28.19-.85,9.44-1.7,18.89-2.56,28.41-.79,.26-1.5,.52-2.22,.72-17.8,4.94-35.61,9.86-53.4,14.82-.87,.24-1.66,.23-2.52,0-17.95-5.03-35.91-10.04-53.86-15.06-.48-.13-.96-.29-1.58-.48-1.3-14.45-2.59-28.87-3.9-43.43h27.9c.58,3.59,.7,7.27,1.08,10.92,.38,3.67,.65,7.36,.98,11.08,3.12,.85,6.1,1.66,9.07,2.46,6.75,1.8,13.51,3.59,20.26,5.41,.92,.25,1.78,.27,2.69,.02,9.38-2.52,18.77-5.03,28.16-7.54,.39-.1,.76-.26,1.1-.38,.56-2.5,3.31-34.15,3.04-35.67H62.98c-2.54-28.07-5.05-55.84-7.56-83.59,1.14-.33,136.5-.48,138.83-.15-.23,4.62-.81,9.23-1.2,13.85Z"/></svg>