<?xml version="1.0" encoding="utf-8"?>
<!-- Generator: Adobe Illustrator 26.5.0, SVG Export Plug-In . SVG Version: 6.00 Build 0)  -->
<svg version="1.1" id="Laag_1" xmlns="http://www.w3.org/2000/svg" xmlns:xlink="http://www.w3.org/1999/xlink" x="0px" y="0px"
	 viewBox="0 0 50 50" style="enable-background:new 0 0 50 50;" xml:space="preserve">
<style type="text/css">
	.st0{fill:#070809;}
</style>
<g>
	<path class="st0" d="M7,2.5C7.6,3,7.3,3.7,7.4,4.3c1,0,2.1,0,3.1,0c0.2,0,0.4,0,0.5,0c0.4,0,0.6,0.3,0.6,0.6c0,0.4-0.2,0.7-0.7,0.7
		c-1.1,0-2.1,0-3.2,0c-0.1,0-0.3,0-0.5,0c0,0.4,0,0.7,0,1c0,0.5-0.2,0.7-0.7,0.7c-0.3,0-0.6,0-1,0c0,5.2,0,10.5,0,15.7
		c0,0,0,0,0.1,0c1,0.1,1.1,0.1,1.1,1.2c0,0.5,0,1,0,1.5c0,0.8-0.2,1-1,1c-0.1,0-0.1,0-0.2,0c0,5.2,0,10.5,0,15.8c0.3,0,0.5,0,0.8,0
		c0.7,0,0.9,0.2,0.9,0.9c0,0.3,0,0.5,0,0.8c5.2,0,10.5,0,15.7,0c0,0,0-0.1,0-0.1c0.1-1,0.2-1.1,1.2-1.1c0.5,0,1,0,1.5,0
		c0.7,0,1.1,0.3,1,1c0,0.1,0,0.1,0,0.2c0.2,0,0.3,0,0.5,0c2.8,0,5.7,0,8.5,0c0.1,0,0.2,0,0.4,0c0.4,0,0.7,0.3,0.7,0.7
		c0,0.4-0.3,0.6-0.7,0.7c-0.8,0-1.7,0-2.5,0c-2.1,0-4.3,0-6.4,0c-0.2,0-0.3,0-0.5,0c-0.2,1.2-0.2,1.2-1.4,1.2c-0.5,0-0.9,0-1.4,0
		c-0.8,0-1-0.2-1-0.9c0-0.1,0-0.1,0-0.2c-5.2,0-10.5,0-15.8,0c0,0.3,0,0.7,0,1c0,0.5-0.2,0.7-0.7,0.7c-1.1,0-2.3,0-3.4,0
		c-0.2,0-0.5-0.2-0.7-0.3c0-1.4,0-2.7,0-4.1c0.5-0.6,1.2-0.2,1.7-0.4c0-5.3,0-10.5,0-15.7c-0.1,0-0.1,0-0.2,0c-0.8,0-1-0.2-1-1
		c0-0.5,0-1,0-1.5c0-1,0.1-1.1,1.1-1.2c0,0,0,0,0.1,0c0-5.2,0-10.4,0-15.7C3.7,7.3,3,7.6,2.5,7c0-1.5,0-3,0-4.5C4,2.5,5.5,2.5,7,2.5
		z M6,3.9c-0.7,0-1.4,0-2.1,0c0,0.7,0,1.4,0,2.1C4.6,6,5.3,6,6,6C6,5.3,6,4.6,6,3.9z M3.9,46c0.7,0,1.4,0,2.1,0c0-0.7,0-1.4,0-2.1
		c-0.7,0-1.4,0-2.1,0C3.9,44.6,3.9,45.3,3.9,46z M5.4,25.5c0-0.4,0-0.7,0-1c-0.3,0-0.6,0-0.9,0c0,0.3,0,0.7,0,1
		C4.8,25.5,5.1,25.5,5.4,25.5z M24.5,44.5c0,0.3,0,0.6,0,1c0.3,0,0.7,0,1,0c0-0.3,0-0.6,0-1C25.1,44.5,24.8,44.5,24.5,44.5z"/>
	<path class="st0" d="M47,2.5c0.3,0.3,0.4,0.6,0.4,1c0,1,0,2,0,3c0,0.6-0.2,0.8-0.8,0.8c-0.3,0-0.6,0-0.9,0c0,5.2,0,10.5,0,15.7
		c0,0,0.1,0,0.1,0c0.8-0.1,1.1,0.2,1.1,1.1c0,0.5,0,0.9,0,1.4c0,1.1-0.1,1.2-1.2,1.2c0,5.2,0,10.5,0,15.8c0.3,0,0.6,0,1,0
		c0.5,0,0.7,0.2,0.7,0.7c0,1.1,0,2.2,0,3.4c0,0.5-0.2,0.7-0.7,0.7c-1.1,0-2.2,0-3.4,0c-0.5,0-0.7-0.2-0.7-0.7c0-0.3,0-0.6,0-1
		c-0.7,0-1.3,0-1.9,0c-0.5,0-0.9,0-1.4,0c-0.4,0-0.6-0.3-0.6-0.6c0-0.4,0.3-0.7,0.6-0.7c0.9,0,1.8,0,2.8,0c0.2,0,0.3,0,0.5,0
		c0-0.4,0-0.7,0-1c0-0.5,0.2-0.7,0.7-0.7c0.3,0,0.6,0,1,0c0-5.2,0-10.5,0-15.7c0,0-0.1,0-0.1,0c-0.8,0.1-1.1-0.2-1.1-1.1
		c0-0.5,0-0.9,0-1.4c0-1.1,0.1-1.2,1.2-1.2c0-5.2,0-10.5,0-15.8c-0.2,0-0.4,0-0.6,0c-1,0-1.1-0.1-1.1-1.2c0-0.2,0-0.4,0-0.6
		c-5.3,0-10.5,0-15.7,0c0,0.1,0,0.1,0,0.2c0,0.9-0.2,1-1.1,1c-0.5,0-1.1,0-1.6,0c-0.8,0-1-0.2-1-1c0-0.1,0-0.1,0-0.2
		c-0.2,0-0.3,0-0.5,0c-2.7,0-5.4,0-8.1,0c-0.1,0-0.2,0-0.4,0c-0.4,0-0.7-0.3-0.7-0.7c0-0.4,0.3-0.6,0.7-0.6c1.3,0,2.5,0,3.8,0
		c1.6,0,3.1,0,4.7,0c0.2,0,0.3,0,0.5,0c0.1-1.2,0.1-1.2,1.4-1.2c0.5,0,0.9,0,1.4,0c0.8,0,0.9,0.2,1,0.9c0,0.1,0,0.1,0,0.2
		c5.2,0,10.5,0,15.7,0c0.2-0.6-0.2-1.3,0.4-1.7C44.3,2.5,45.7,2.5,47,2.5z M43.9,3.9c0,0.7,0,1.4,0,2.1c0.7,0,1.4,0,2.1,0
		c0-0.7,0-1.4,0-2.1C45.3,3.9,44.6,3.9,43.9,3.9z M46,43.9c-0.7,0-1.4,0-2.1,0c0,0.7,0,1.4,0,2.1c0.7,0,1.4,0,2.1,0
		C46,45.3,46,44.6,46,43.9z M25.5,4.5c-0.4,0-0.7,0-1,0c0,0.3,0,0.6,0,1c0.3,0,0.7,0,1,0C25.5,5.1,25.5,4.8,25.5,4.5z M44.5,24.5
		c0,0.4,0,0.7,0,1c0.3,0,0.6,0,1,0c0-0.3,0-0.7,0-1C45.1,24.5,44.8,24.5,44.5,24.5z"/>
	<path class="st0" d="M25,9.6c1.3,0,2.6,0,3.9,0c1.1,0,1.6,0.4,2,1.4c3.2,9.2,6.5,18.4,9.7,27.7c0.4,1-0.1,1.7-1.2,1.7
		c-2.4,0-4.7,0-7.1,0c-1,0-1.6-0.4-1.9-1.3c-0.6-1.5-1.1-3.1-1.7-4.6c-0.1-0.3-0.2-0.3-0.5-0.3c-2.1,0-4.2,0-6.3,0
		c-0.3,0-0.4,0.1-0.5,0.4c-0.6,1.5-1.1,3-1.7,4.5c-0.4,1-0.9,1.4-2,1.4c-2.3,0-4.7,0-7,0c-1.1,0-1.6-0.7-1.2-1.7
		c3.2-9.2,6.4-18.4,9.7-27.5c0.4-1.1,0.9-1.5,2.1-1.5C22.4,9.6,23.7,9.6,25,9.6z M26.5,10.9c0.1,0.4,0.3,0.8,0.4,1.2
		c0.7,1.9,1.3,3.8,2,5.6c0.1,0.3,0.1,0.6-0.2,0.8c-0.2,0.1-0.5,0.1-0.7,0c-0.2-0.1-0.3-0.3-0.3-0.5c-0.8-2.2-1.5-4.4-2.3-6.5
		c-0.1-0.4-0.3-0.6-0.8-0.6c-1.1,0-2.2,0-3.3,0c-0.5,0-0.7,0.2-0.9,0.6c-3,8.7-6.1,17.3-9.1,26c-0.2,0.5-0.3,1-0.5,1.5
		c1,0,2,0,2.9,0c0.1,0,0.3-0.2,0.4-0.3c0.2-0.3,0.3-0.7,0.4-1.1c0.2-0.5,0.5-0.6,0.9-0.5c0.4,0.2,0.5,0.5,0.4,0.9
		c-0.1,0.3-0.2,0.6-0.3,0.9c0.8,0,1.6,0,2.4,0c0.3,0,0.5-0.1,0.6-0.4c0.3-0.9,0.7-1.8,1-2.7c0.2-0.6,0.4-1.2,0.7-1.8
		c-0.6,0-1.2,0.1-1.7,0c-0.8-0.1-1.3,0.1-1.5,1c-0.1,0.4-0.5,0.6-0.9,0.4c-0.3-0.1-0.5-0.5-0.4-0.9c0.1-0.4,0.3-0.7,0.4-1.1
		c0.2-0.6,0.3-0.7,1-0.7c3.9,0,7.8,0,11.7,0c0.7,0,0.8,0.1,1,0.7c0.6,1.7,1.2,3.4,1.9,5c0.1,0.2,0.3,0.5,0.4,0.5c1,0,1.9,0,3,0
		c-0.1-0.2-0.1-0.3-0.1-0.5c-1.6-4.6-3.2-9.3-4.9-13.9c-0.4-1.2-0.8-2.3-1.2-3.5c-0.1-0.4,0-0.7,0.4-0.9c0.4-0.1,0.7,0,0.8,0.4
		c0,0.1,0.1,0.2,0.1,0.2c2,5.7,4,11.3,6,17c0.4,1,0.3,1,1.4,1c0.6,0,1.1,0,1.8,0c-0.1-0.2-0.1-0.4-0.1-0.5
		c-2.4-6.8-4.7-13.5-7.1-20.3c-0.8-2.3-1.6-4.6-2.4-6.8c-0.1-0.2-0.2-0.5-0.5-0.5C28.2,10.9,27.4,10.9,26.5,10.9z"/>
	<path class="st0" d="M22.8,29.7c-1.5,0-3,0-4.5,0c-0.8,0-1-0.4-0.8-1.1c1.5-4.4,3-8.7,4.5-13.1c0.1-0.4,0.3-0.7,0.7-0.7
		c0.4,0,0.6,0.3,0.7,0.7c1.5,4.3,3,8.7,4.6,13c0.3,0.8,0,1.1-0.8,1.1C25.8,29.7,24.3,29.7,22.8,29.7z M19.1,28.4c0.9,0,1.7,0,2.5,0
		c0.3,0,0.4-0.1,0.5-0.4c0.7-2,1.4-4,2.1-6.1c0.1-0.2,0.1-0.4,0-0.6c-0.4-1.1-0.8-2.2-1.1-3.3c0-0.1-0.1-0.2-0.2-0.4
		C21.6,21.2,20.3,24.8,19.1,28.4z M25,23.8C25,23.8,24.9,23.8,25,23.8c-0.6,1.5-1.1,3-1.7,4.5c1.1,0,2.2,0,3.3,0
		C26.1,26.8,25.5,25.3,25,23.8z"/>
</g>
</svg>
