<?xml version="1.0" encoding="UTF-8"?><svg id="Laag_1" xmlns="http://www.w3.org/2000/svg" viewBox="0 0 32.26 50"><path d="M14.88,12.12c-1.55-2.55-5.51-1.38-5.51,1.6,0,4.72,0,9.45,.02,14.17,0,1.06,.17,2.16,.47,3.18,.43,1.43,1.47,2.01,2.96,2.12,2.52,.17,4.03-1.19,5.18-3.19,.08-.15,.16-.3,.24-.45,.01-.02,.05-.04,.08-.06-.41,2.27-2.4,4.13-4.88,4.42-1.78,.21-3.57,.11-5.29-.43-2.31-.73-3.71-2.69-3.77-5.32-.05-1.94-.02-3.87-.02-5.81,0-4.25,0-8.51,0-12.76,0-.24,0-.48,0-.8-1.17,0-4.07-.02-4.07-.02,0,0-.08-.03-.11-.06-.23-.16-.23-.51,0-.66,.04-.03,.08-.04,.12-.05,.55-.05,1.1-.02,1.65-.02,.78,0,1.55,0,2.39,0V.46c1.75,.49,3.4,.62,5.02-.46V7.99c.49,0,.92,0,1.35,0,4.81,0,9.14,2.92,10.96,7.37,1.52,3.72,3.05,7.43,4.57,11.15,.09,.21,.18,.41,.33,.75,.98-2.07,1.91-4.05,2.84-6.02,.92-1.97,1.85-3.93,2.86-5.86-.39,.96-.78,1.91-1.16,2.87-3.3,8.17-6.59,16.34-9.9,24.51-.76,1.86-1.61,3.67-2.93,5.24-2.22,2.64-6.3,2.42-8.19,.84-1.26-1.06-1.89-3.02-1.36-4.58,.22-.64,.66-1.11,1.26-1.4,1.07-.5,2.16-.43,3.17,.13,1.05,.58,1.21,1.77,.58,3-.29,.57-.5,1.22-.59,1.86-.09,.67,.21,.98,.88,1.1,1.28,.25,2.36-.18,3.26-1.08,1.04-1.03,1.74-2.3,2.3-3.63,1.38-3.31,2.7-6.63,4.02-9.96,.09-.22,.04-.56-.06-.79-2.41-6.01-4.84-12.02-7.27-18.03-.4-.98-.79-1.97-1.2-2.95-.05-.13-.12-.25-.19-.37Z"/></svg>