<?xml version="1.0" encoding="UTF-8"?><svg id="Laag_1" xmlns="http://www.w3.org/2000/svg" viewBox="0 0 250 250"><defs><style>.cls-1{fill:#fff;}</style></defs><path class="cls-1" d="M234.39,.02c-.18,.03-.37,0-.55,0C161.25,.02,88.65,.02,16.05,.03c-.4,0-.8,.02-1.19,.03V.98c.36,1.62,.37,3.27,.52,4.91,.63,6.73,1.22,13.47,1.82,20.21,.58,6.52,1.14,13.05,1.72,19.57,.58,6.52,1.18,13.05,1.77,19.57,.52,5.85,1.02,11.71,1.54,17.56,.64,7.19,1.3,14.39,1.95,21.58,.52,5.85,1.02,11.71,1.54,17.56,.58,6.52,1.18,13.05,1.77,19.57,.52,5.82,1.02,11.65,1.54,17.47,.58,6.52,1.18,13.05,1.76,19.57,.46,5.12,.9,10.24,1.35,15.37,.52,5.85,1.05,11.71,1.58,17.56,.38,4.27,.77,8.53,1.13,12.8,.05,.54,.2,.78,.74,.93,29.38,8.14,58.76,16.3,88.13,24.46,.28,.08,.61,.07,.83,.33h.74c1.98-.8,4.07-1.23,6.11-1.8,19.1-5.31,38.21-10.6,57.32-15.89,8.54-2.37,17.07-4.75,25.61-7.1,.59-.16,.8-.39,.85-1.03,.77-8.9,1.57-17.8,2.37-26.71,.83-9.27,1.68-18.53,2.51-27.8,.77-8.6,1.51-17.2,2.27-25.79,.91-10.3,1.84-20.61,2.76-30.91,.92-10.3,1.84-20.61,2.76-30.91,.92-10.3,1.84-20.61,2.76-30.91,.86-9.6,1.71-19.21,2.57-28.81,.64-7.16,1.29-14.33,1.96-21.49,.06-.62-.04-.94-.73-.83Zm-41.87,62.87c-.46,5.15-.94,10.3-1.4,15.45-.4,4.42-.77,8.84-1.17,13.26-.46,5.15-.94,10.3-1.4,15.45-.39,4.36-.78,8.72-1.17,13.08-.41,4.57-.82,9.14-1.23,13.71-.39,4.36-.77,8.72-1.16,13.08-.4,4.54-.82,9.08-1.22,13.62-.39,4.3-.77,8.6-1.15,12.89-.37,4.21-.76,8.41-1.1,12.62-.05,.62-.44,.63-.84,.74-5.65,1.57-11.29,3.14-16.94,4.71-12.71,3.52-25.42,7.04-38.13,10.57-.46,.13-.87,.13-1.34,0-18.34-5.11-36.69-10.2-55.04-15.27-.7-.19-.87-.49-.93-1.17-.37-4.48-.8-8.96-1.2-13.44-.4-4.45-.78-8.9-1.17-13.35-.4-4.45-.77-8.9-1.22-13.34-.23-2.25-.29-2.25,1.93-2.25,8.21,0,16.41,0,24.62-.01,.65,0,.94,.09,1,.85,.3,3.9,.68,7.8,1.03,11.7,.26,2.93,.52,5.85,.76,8.78,.05,.56,.31,.77,.82,.9,9.82,2.64,19.63,5.28,29.44,7.94,.33,.09,.63,.14,.98,.04,9.84-2.67,19.68-5.34,29.54-7.97,.69-.19,.89-.49,.95-1.18,.44-5.27,.93-10.55,1.4-15.82,.45-5.12,.9-10.24,1.35-15.36,.09-.98,.14-1.96,.29-2.92,.11-.65-.11-.82-.7-.75-.21,.03-.43,0-.64,0-31.02,0-62.04-.02-93.06,0-.99,0-1.19-.31-1.26-1.22-.36-4.57-.8-9.14-1.21-13.71-.36-4.05-.72-8.11-1.09-12.16-.03-.36,.04-.52,.41-.5,.24,.02,.49,0,.73,0,16.01,0,32.03,0,48.04,0,16.72,0,33.44-.02,50.16,0,.77,0,1.07-.12,1.14-1,.42-5.37,.93-10.73,1.41-16.1,.31-3.44,.6-6.89,.93-10.33,.07-.69-.08-.98-.8-.87-.24,.04-.49,0-.73,0-34.23,0-68.47-.02-102.7,0-.84,0-1.15-.19-1.22-1.06-.75-8.66-1.54-17.31-2.34-25.96-.05-.49,.12-.59,.54-.56,.21,.02,.43,0,.64,0H124.97v-.02h.73c22.44,0,44.89,0,67.33-.02,.83,0,1,.19,.92,1.01-.51,5.3-.96,10.61-1.44,15.91Z"/></svg>