<?xml version="1.0" encoding="UTF-8"?><svg id="Laag_1" xmlns="http://www.w3.org/2000/svg" viewBox="0 0 250 250"><defs><style>.cls-1{fill:#fff;}</style></defs><path class="cls-1" d="M0-1.45V250H251.45V-1.45H0ZM137.11,194.83c0,5.63-.78,11.16-2.92,16.42-3.65,8.94-10.28,14.53-19.47,17.2-4.95,1.44-10.02,1.91-15.14,1.68-6.22-.28-12.2-1.6-17.73-4.61-6.95-3.79-11.92-9.43-15.39-16.48-.07-.14-.1-.3-.21-.63,6.39-3.87,12.8-7.75,19.29-11.68,.3,.48,.53,.86,.77,1.23,1.2,1.85,2.31,3.77,3.63,5.53,1.99,2.66,4.59,4.54,7.93,5.13,2.98,.52,5.94,.38,8.81-.65,2.67-.96,4.37-2.92,5.36-5.54,.86-2.29,1.1-4.68,1.22-7.09,.04-.86,.02-1.72,.02-2.58,0-25.67,0-51.35,0-77.02v-1.87h23.76c.03,.48,.09,.92,.09,1.36,0,26.53,.02,53.07-.01,79.6Zm92.51,15.1c-2.64,6.61-7.3,11.44-13.47,14.86-4.4,2.44-9.13,3.88-14.09,4.69-4.09,.67-8.21,.88-12.33,.67-10.16-.51-19.62-3.18-27.86-9.41-4.9-3.71-8.77-8.3-11.69-13.69-.17-.32-.31-.66-.55-1.15,6.46-3.75,12.8-7.44,19.28-11.2,.3,.43,.58,.81,.83,1.2,1.6,2.48,3.4,4.8,5.58,6.81,3.71,3.43,8.06,5.48,13.09,6.06,3.94,.46,7.81,.33,11.59-1,1.55-.55,2.97-1.34,4.27-2.36,5.18-4.09,4.67-11.58,1.11-15.3-1.37-1.43-2.91-2.66-4.67-3.53-3.66-1.81-7.34-3.56-11.07-5.22-4.77-2.13-9.63-4.05-14.16-6.68-4.34-2.52-8.35-5.45-11.59-9.33-3.69-4.41-5.86-9.48-6.72-15.14-.71-4.73-.76-9.45,.4-14.12,2.33-9.32,7.98-15.93,16.59-20.06,3.71-1.77,7.64-2.77,11.72-3.26,3.22-.38,6.44-.41,9.66-.18,7.41,.51,14.26,2.6,20.12,7.37,3.76,3.06,6.69,6.8,9.1,10.99,.08,.14,.13,.29,.26,.57-6.11,3.93-12.22,7.85-18.44,11.85-.27-.41-.53-.76-.75-1.14-1.04-1.72-2.19-3.35-3.61-4.78-2.73-2.74-6.05-4.05-9.89-4.18-2.1-.07-4.16,.1-6.11,.96-3.51,1.54-5.58,4.17-5.94,8.03-.38,4.06,.96,7.38,4.26,9.86,2.13,1.61,4.48,2.84,6.91,3.92,4.77,2.13,9.57,4.17,14.32,6.34,5.1,2.34,9.98,5.06,14.35,8.61,5.18,4.21,8.98,9.39,10.61,15.94,1.93,7.75,1.9,15.47-1.1,22.99Z"/></svg>