<?xml version="1.0" encoding="UTF-8"?><svg id="Laag_1" xmlns="http://www.w3.org/2000/svg" viewBox="0 0 250 250"><defs><style>.cls-1{fill:#fff;}</style></defs><path class="cls-1" d="M0,0V250H250V0H0ZM61.74,175.7c0,3.84-.75,5.75-2.23,5.75h-13.13c-1.43,0-2.15-1.91-2.15-5.75V80.91c0-1.83-.37-2.69-1.12-2.58l-6.87,1.72c-1.26,.11-1.88-1.15-1.88-3.78v-8.24c0-2.28,.68-3.57,2.05-3.85l22.67-5.85c.18-.05,.43-.08,.76-.08,1.26,0,1.88,1.34,1.88,4.03v113.42Zm43.15-.14c0,3.84-.75,5.75-2.23,5.75l-13.11-.02c-1.43,0-2.15-1.91-2.15-5.75V80.75c0-1.83-.37-2.69-1.12-2.58l-6.87,1.72c-1.26,.11-1.88-1.15-1.88-3.78v-8.24c0-2.28,.69-3.57,2.06-3.85l22.65-5.83c.18-.05,.43-.08,.76-.08,1.26,0,1.88,1.34,1.88,4.03v113.42Zm54.54,2.37c0,2.34-.83,3.52-2.49,3.52l-8.73,.02c-2.29,0-4.27-.16-5.96-.48s-3.44-1.04-5.27-2.15c-1.83-1.12-3.33-2.64-4.51-4.59-1.18-1.94-2.13-4.67-2.87-8.16-.73-3.49-1.12-7.63-1.12-12.44v-44c0-1.15-.32-1.72-.94-1.72h-5.32c-1.43,0-2.15-1.37-2.15-4.11v-4.64c0-2.8,.72-4.21,2.15-4.21h5.32c.62,0,.94-.76,.94-2.31l1.55-33.37c.18-3.03,.91-4.54,2.23-4.54h8.59c1.43,0,2.15,1.51,2.15,4.54v33.37c0,1.55,.33,2.31,1.04,2.31h10.94c1.43,0,2.15,1.4,2.15,4.21v4.64c0,2.74-.72,4.11-2.15,4.11h-10.98c-.4,0-.67,.1-.81,.3-.14,.19-.21,.67-.21,1.42v44.27c0,3.31,.21,6.09,.64,8.28s1.05,3.82,1.88,4.84c.83,1.02,1.66,1.72,2.49,2.06,.83,.35,1.85,.51,3.04,.51h6.09c1.55,0,2.31,1.07,2.31,3.17v5.15Zm54.81-77.66l-15.28,79.54c-1.19,6.58-2.52,11.61-3.95,15.1s-3.03,5.86-4.81,7.12c-2.09,1.35-4.55,2.04-7.04,1.98h-.86c-4.64,0-7.77-1.23-9.43-3.7-.46-.51-.68-1.83-.68-3.95,0-4.24,.68-6.36,2.05-6.36,.11,0,1.15,.29,3.09,.86,1.98,.61,3.23,.89,3.81,.89,1.31,0,2.45-1.07,3.42-3.22s1.47-5.19,1.47-9.14c0-.92-.57-4.09-1.72-9.53l-16.82-69.92c-.11-.8-.18-1.43-.18-1.9,0-2.05,.43-3.09,1.29-3.09h10.39c.8,0,1.45,.27,1.98,.81,.53,.54,.92,1.64,1.19,3.3l11.15,59.02c.22,.68,.37,1.04,.43,1.04,.22,0,.35-.32,.35-.94l8.75-58.86c.22-1.72,.59-2.87,1.07-3.47,.48-.61,1.1-.91,1.85-.91h7.2c.97,0,1.47,1.12,1.47,3.35,0,.51-.06,1.18-.18,1.98Z"/></svg>